<svg viewBox="0 0 560 560" fill="none" xmlns="http://www.w3.org/2000/svg"><defs><clipPath id="dataClip"><rect width="560" height="560" rx="280" fill="white"></rect></clipPath></defs><circle class="specialBackground" cx="280" cy="280" r="280" fill="#221e19"></circle><g clip-path="url(#dataClip)"><circle cx="205.0" cy="25.0" r="1.65" fill="#FFB020" fill-opacity="0.34"></circle><circle cx="235.0" cy="25.0" r="1.69" fill="#FFB020" fill-opacity="0.35"></circle><circle cx="265.0" cy="25.0" r="1.71" fill="#FFB020" fill-opacity="0.36"></circle><circle cx="295.0" cy="25.0" r="1.71" fill="#FFB020" fill-opacity="0.36"></circle><circle cx="325.0" cy="25.0" r="1.69" fill="#FFB020" fill-opacity="0.35"></circle><circle cx="355.0" cy="25.0" r="1.65" fill="#FFB020" fill-opacity="0.34"></circle><circle cx="160.0" cy="51.1" r="1.69" fill="#FFB020" fill-opacity="0.35"></circle><circle cx="190.0" cy="51.1" r="1.78" fill="#FFB020" fill-opacity="0.39"></circle><circle cx="220.0" cy="51.1" r="1.86" fill="#FFB020" fill-opacity="0.41"></circle><circle cx="250.0" cy="51.1" r="1.91" fill="#FFB020" fill-opacity="0.42"></circle><circle cx="280.0" cy="51.1" r="1.93" fill="#FFB020" fill-opacity="0.43"></circle><circle cx="310.0" cy="51.1" r="1.91" fill="#FFB020" fill-opacity="0.42"></circle><circle cx="340.0" cy="51.1" r="1.86" fill="#FFB020" fill-opacity="0.41"></circle><circle cx="370.0" cy="51.1" r="1.78" fill="#FFB020" fill-opacity="0.39"></circle><circle cx="400.0" cy="51.1" r="1.69" fill="#FFB020" fill-opacity="0.35"></circle><circle cx="115.0" cy="77.2" r="1.67" fill="#FFB020" fill-opacity="0.35"></circle><circle cx="145.0" cy="77.2" r="1.80" fill="#FFB020" fill-opacity="0.39"></circle><circle cx="175.0" cy="77.2" r="1.93" fill="#FFB020" fill-opacity="0.43"></circle><circle cx="205.0" cy="77.2" r="2.06" fill="#FFB020" fill-opacity="0.46"></circle><circle cx="235.0" cy="77.2" r="2.15" fill="#FFB020" fill-opacity="0.48"></circle><circle cx="265.0" cy="77.2" r="2.20" fill="#FFB020" fill-opacity="0.49"></circle><circle cx="295.0" cy="77.2" r="2.20" fill="#FFB020" fill-opacity="0.49"></circle><circle cx="325.0" cy="77.2" r="2.15" fill="#FFB020" fill-opacity="0.48"></circle><circle cx="355.0" cy="77.2" r="2.06" fill="#FFB020" fill-opacity="0.46"></circle><circle cx="385.0" cy="77.2" r="1.93" fill="#FFB020" fill-opacity="0.43"></circle><circle cx="415.0" cy="77.2" r="1.80" fill="#FFB020" fill-opacity="0.39"></circle><circle cx="445.0" cy="77.2" r="1.67" fill="#FFB020" fill-opacity="0.35"></circle><circle cx="100.0" cy="103.3" r="1.73" fill="#FFB020" fill-opacity="0.37"></circle><circle cx="130.0" cy="103.3" r="1.90" fill="#FFB020" fill-opacity="0.42"></circle><circle cx="160.0" cy="103.3" r="2.09" fill="#FFB020" fill-opacity="0.47"></circle><circle cx="190.0" cy="103.3" r="2.26" fill="#FFB020" fill-opacity="0.50"></circle><circle cx="220.0" cy="103.3" r="2.41" fill="#FFB020" fill-opacity="0.53"></circle><circle cx="250.0" cy="103.3" r="2.51" fill="#FFB020" fill-opacity="0.55"></circle><circle cx="280.0" cy="103.3" r="2.54" fill="#FFB020" fill-opacity="0.56"></circle><circle cx="310.0" cy="103.3" r="2.51" fill="#FFB020" fill-opacity="0.55"></circle><circle cx="340.0" cy="103.3" r="2.41" fill="#FFB020" fill-opacity="0.53"></circle><circle cx="370.0" cy="103.3" r="2.26" fill="#FFB020" fill-opacity="0.50"></circle><circle cx="400.0" cy="103.3" r="2.09" fill="#FFB020" fill-opacity="0.47"></circle><circle cx="430.0" cy="103.3" r="1.90" fill="#FFB020" fill-opacity="0.42"></circle><circle cx="460.0" cy="103.3" r="1.73" fill="#FFB020" fill-opacity="0.37"></circle><circle cx="85.0" cy="129.4" r="1.77" fill="#FFB020" fill-opacity="0.38"></circle><circle cx="115.0" cy="129.4" r="1.98" fill="#FFB020" fill-opacity="0.44"></circle><circle cx="145.0" cy="129.4" r="2.21" fill="#FFB020" fill-opacity="0.49"></circle><circle cx="175.0" cy="129.4" r="2.45" fill="#FFB020" fill-opacity="0.54"></circle><circle cx="205.0" cy="129.4" r="2.66" fill="#FFB020" fill-opacity="0.58"></circle><circle cx="235.0" cy="129.4" r="2.82" fill="#FFB020" fill-opacity="0.61"></circle><circle cx="265.0" cy="129.4" r="2.91" fill="#FFB020" fill-opacity="0.62"></circle><circle cx="295.0" cy="129.4" r="2.91" fill="#FFB020" fill-opacity="0.62"></circle><circle cx="325.0" cy="129.4" r="2.82" fill="#FFB020" fill-opacity="0.61"></circle><circle cx="355.0" cy="129.4" r="2.66" fill="#FFB020" fill-opacity="0.58"></circle><circle cx="385.0" cy="129.4" r="2.45" fill="#FFB020" fill-opacity="0.54"></circle><circle cx="415.0" cy="129.4" r="2.21" fill="#FFB020" fill-opacity="0.49"></circle><circle cx="445.0" cy="129.4" r="1.98" fill="#FFB020" fill-opacity="0.44"></circle><circle cx="475.0" cy="129.4" r="1.77" fill="#FFB020" fill-opacity="0.38"></circle><circle cx="70.0" cy="155.5" r="1.79" fill="#FFB020" fill-opacity="0.39"></circle><circle cx="100.0" cy="155.5" r="2.03" fill="#FFB020" fill-opacity="0.45"></circle><circle cx="130.0" cy="155.5" r="2.30" fill="#FFB020" fill-opacity="0.51"></circle><circle cx="160.0" cy="155.5" r="2.59" fill="#FFB020" fill-opacity="0.57"></circle><circle cx="190.0" cy="155.5" r="2.87" fill="#FFB020" fill-opacity="0.62"></circle><circle cx="220.0" cy="155.5" r="3.11" fill="#FFB020" fill-opacity="0.65"></circle><circle cx="250.0" cy="155.5" r="3.28" fill="#FFB020" fill-opacity="0.68"></circle><circle cx="280.0" cy="155.5" r="3.34" fill="#FFB020" fill-opacity="0.69"></circle><circle cx="310.0" cy="155.5" r="3.28" fill="#FFB020" fill-opacity="0.68"></circle><circle cx="340.0" cy="155.5" r="3.11" fill="#FFB020" fill-opacity="0.65"></circle><circle cx="370.0" cy="155.5" r="2.87" fill="#FFB020" fill-opacity="0.62"></circle><circle cx="400.0" cy="155.5" r="2.59" fill="#FFB020" fill-opacity="0.57"></circle><circle cx="430.0" cy="155.5" r="2.30" fill="#FFB020" fill-opacity="0.51"></circle><circle cx="460.0" cy="155.5" r="2.03" fill="#FFB020" fill-opacity="0.45"></circle><circle cx="490.0" cy="155.5" r="1.79" fill="#FFB020" fill-opacity="0.39"></circle><circle cx="55.0" cy="181.6" r="1.78" fill="#FFB020" fill-opacity="0.39"></circle><circle cx="85.0" cy="181.6" r="2.03" fill="#FFB020" fill-opacity="0.45"></circle><circle cx="115.0" cy="181.6" r="2.34" fill="#FFB020" fill-opacity="0.52"></circle><circle cx="145.0" cy="181.6" r="2.68" fill="#FFB020" fill-opacity="0.58"></circle><circle cx="175.0" cy="181.6" r="3.02" fill="#FFB020" fill-opacity="0.64"></circle><circle cx="205.0" cy="181.6" r="3.35" fill="#FFB020" fill-opacity="0.69"></circle><circle cx="235.0" cy="181.6" r="3.62" fill="#FFB020" fill-opacity="0.73"></circle><circle cx="265.0" cy="181.6" r="3.77" fill="#FFB020" fill-opacity="0.75"></circle><circle cx="295.0" cy="181.6" r="3.77" fill="#FFB020" fill-opacity="0.75"></circle><circle cx="325.0" cy="181.6" r="3.62" fill="#FFB020" fill-opacity="0.73"></circle><circle cx="355.0" cy="181.6" r="3.35" fill="#FFB020" fill-opacity="0.69"></circle><circle cx="385.0" cy="181.6" r="3.02" fill="#FFB020" fill-opacity="0.64"></circle><circle cx="415.0" cy="181.6" r="2.68" fill="#FFB020" fill-opacity="0.58"></circle><circle cx="445.0" cy="181.6" r="2.34" fill="#FFB020" fill-opacity="0.52"></circle><circle cx="475.0" cy="181.6" r="2.03" fill="#FFB020" fill-opacity="0.45"></circle><circle cx="505.0" cy="181.6" r="1.78" fill="#FFB020" fill-opacity="0.39"></circle><circle cx="40.0" cy="207.7" r="1.74" fill="#FFB020" fill-opacity="0.37"></circle><circle cx="70.0" cy="207.7" r="1.99" fill="#FFB020" fill-opacity="0.44"></circle><circle cx="100.0" cy="207.7" r="2.32" fill="#FFB020" fill-opacity="0.52"></circle><circle cx="130.0" cy="207.7" r="2.68" fill="#FFB020" fill-opacity="0.58"></circle><circle cx="160.0" cy="207.7" r="3.08" fill="#FFB020" fill-opacity="0.65"></circle><circle cx="190.0" cy="207.7" r="3.49" fill="#FFB020" fill-opacity="0.71"></circle><circle cx="220.0" cy="207.7" r="3.87" fill="#FFB020" fill-opacity="0.77"></circle><circle cx="250.0" cy="207.7" r="4.17" fill="#FFB020" fill-opacity="0.80"></circle><circle cx="280.0" cy="207.7" r="4.28" fill="#FFB020" fill-opacity="0.82"></circle><circle cx="310.0" cy="207.7" r="4.17" fill="#FFB020" fill-opacity="0.80"></circle><circle cx="340.0" cy="207.7" r="3.87" fill="#FFB020" fill-opacity="0.77"></circle><circle cx="370.0" cy="207.7" r="3.49" fill="#FFB020" fill-opacity="0.71"></circle><circle cx="400.0" cy="207.7" r="3.08" fill="#FFB020" fill-opacity="0.65"></circle><circle cx="430.0" cy="207.7" r="2.68" fill="#FFB020" fill-opacity="0.58"></circle><circle cx="460.0" cy="207.7" r="2.32" fill="#FFB020" fill-opacity="0.52"></circle><circle cx="490.0" cy="207.7" r="1.99" fill="#FFB020" fill-opacity="0.44"></circle><circle cx="520.0" cy="207.7" r="1.74" fill="#FFB020" fill-opacity="0.37"></circle><circle cx="25.0" cy="233.8" r="1.69" fill="#FFB020" fill-opacity="0.35"></circle><circle cx="55.0" cy="233.8" r="1.92" fill="#FFB020" fill-opacity="0.43"></circle><circle cx="85.0" cy="233.8" r="2.24" fill="#FFB020" fill-opacity="0.50"></circle><circle cx="115.0" cy="233.8" r="2.62" fill="#FFB020" fill-opacity="0.57"></circle><circle cx="145.0" cy="233.8" r="3.04" fill="#FFB020" fill-opacity="0.64"></circle><circle cx="175.0" cy="233.8" r="3.50" fill="#FFB020" fill-opacity="0.71"></circle><circle cx="205.0" cy="233.8" r="3.98" fill="#FFB020" fill-opacity="0.78"></circle><circle cx="235.0" cy="233.8" r="4.44" fill="#FFB020" fill-opacity="0.84"></circle><circle cx="265.0" cy="233.8" r="4.76" fill="#FFB020" fill-opacity="0.88"></circle><circle cx="295.0" cy="233.8" r="4.76" fill="#FFB020" fill-opacity="0.88"></circle><circle cx="325.0" cy="233.8" r="4.44" fill="#FFB020" fill-opacity="0.84"></circle><circle cx="355.0" cy="233.8" r="3.98" fill="#FFB020" fill-opacity="0.78"></circle><circle cx="385.0" cy="233.8" r="3.50" fill="#FFB020" fill-opacity="0.71"></circle><circle cx="415.0" cy="233.8" r="3.04" fill="#FFB020" fill-opacity="0.64"></circle><circle cx="445.0" cy="233.8" r="2.62" fill="#FFB020" fill-opacity="0.57"></circle><circle cx="475.0" cy="233.8" r="2.24" fill="#FFB020" fill-opacity="0.50"></circle><circle cx="505.0" cy="233.8" r="1.92" fill="#FFB020" fill-opacity="0.43"></circle><circle cx="535.0" cy="233.8" r="1.69" fill="#FFB020" fill-opacity="0.35"></circle><circle cx="40.0" cy="259.9" r="1.82" fill="#FFB020" fill-opacity="0.40"></circle><circle cx="70.0" cy="259.9" r="2.11" fill="#FFB020" fill-opacity="0.47"></circle><circle cx="100.0" cy="259.9" r="2.48" fill="#FFB020" fill-opacity="0.55"></circle><circle cx="130.0" cy="259.9" r="2.91" fill="#FFB020" fill-opacity="0.62"></circle><circle cx="160.0" cy="259.9" r="3.39" fill="#FFB020" fill-opacity="0.70"></circle><circle cx="190.0" cy="259.9" r="3.91" fill="#FFB020" fill-opacity="0.77"></circle><circle cx="220.0" cy="259.9" r="4.46" fill="#FFB020" fill-opacity="0.84"></circle><circle cx="250.0" cy="259.9" r="5.01" fill="#FFB020" fill-opacity="0.91"></circle><circle cx="280.0" cy="259.9" r="5.36" fill="#FFB020" fill-opacity="0.95"></circle><circle cx="310.0" cy="259.9" r="5.01" fill="#FFB020" fill-opacity="0.91"></circle><circle cx="340.0" cy="259.9" r="4.46" fill="#FFB020" fill-opacity="0.84"></circle><circle cx="370.0" cy="259.9" r="3.91" fill="#FFB020" fill-opacity="0.77"></circle><circle cx="400.0" cy="259.9" r="3.39" fill="#FFB020" fill-opacity="0.70"></circle><circle cx="430.0" cy="259.9" r="2.91" fill="#FFB020" fill-opacity="0.62"></circle><circle cx="460.0" cy="259.9" r="2.48" fill="#FFB020" fill-opacity="0.55"></circle><circle cx="490.0" cy="259.9" r="2.11" fill="#FFB020" fill-opacity="0.47"></circle><circle cx="520.0" cy="259.9" r="1.82" fill="#FFB020" fill-opacity="0.40"></circle><circle cx="25.0" cy="286.0" r="1.71" fill="#FFB020" fill-opacity="0.36"></circle><circle cx="55.0" cy="286.0" r="1.96" fill="#FFB020" fill-opacity="0.44"></circle><circle cx="85.0" cy="286.0" r="2.30" fill="#FFB020" fill-opacity="0.51"></circle><circle cx="115.0" cy="286.0" r="2.70" fill="#FFB020" fill-opacity="0.59"></circle><circle cx="145.0" cy="286.0" r="3.16" fill="#FFB020" fill-opacity="0.66"></circle><circle cx="175.0" cy="286.0" r="3.67" fill="#FFB020" fill-opacity="0.74"></circle><circle cx="205.0" cy="286.0" r="4.23" fill="#FFB020" fill-opacity="0.81"></circle><circle cx="235.0" cy="286.0" r="4.82" fill="#FFB020" fill-opacity="0.89"></circle><circle cx="265.0" cy="286.0" r="5.44" fill="#FFB020" fill-opacity="0.96"></circle><circle cx="295.0" cy="286.0" r="5.44" fill="#FFB020" fill-opacity="0.96"></circle><circle cx="325.0" cy="286.0" r="4.82" fill="#FFB020" fill-opacity="0.89"></circle><circle cx="355.0" cy="286.0" r="4.23" fill="#FFB020" fill-opacity="0.81"></circle><circle cx="385.0" cy="286.0" r="3.67" fill="#FFB020" fill-opacity="0.74"></circle><circle cx="415.0" cy="286.0" r="3.16" fill="#FFB020" fill-opacity="0.66"></circle><circle cx="445.0" cy="286.0" r="2.70" fill="#FFB020" fill-opacity="0.59"></circle><circle cx="475.0" cy="286.0" r="2.30" fill="#FFB020" fill-opacity="0.51"></circle><circle cx="505.0" cy="286.0" r="1.96" fill="#FFB020" fill-opacity="0.44"></circle><circle cx="535.0" cy="286.0" r="1.71" fill="#FFB020" fill-opacity="0.36"></circle><circle cx="40.0" cy="312.1" r="1.81" fill="#FFB020" fill-opacity="0.39"></circle><circle cx="70.0" cy="312.1" r="2.10" fill="#FFB020" fill-opacity="0.47"></circle><circle cx="100.0" cy="312.1" r="2.46" fill="#FFB020" fill-opacity="0.54"></circle><circle cx="130.0" cy="312.1" r="2.88" fill="#FFB020" fill-opacity="0.62"></circle><circle cx="160.0" cy="312.1" r="3.34" fill="#FFB020" fill-opacity="0.69"></circle><circle cx="190.0" cy="312.1" r="3.85" fill="#FFB020" fill-opacity="0.76"></circle><circle cx="220.0" cy="312.1" r="4.37" fill="#FFB020" fill-opacity="0.83"></circle><circle cx="250.0" cy="312.1" r="4.85" fill="#FFB020" fill-opacity="0.89"></circle><circle cx="280.0" cy="312.1" r="5.10" fill="#FFB020" fill-opacity="0.92"></circle><circle cx="310.0" cy="312.1" r="4.85" fill="#FFB020" fill-opacity="0.89"></circle><circle cx="340.0" cy="312.1" r="4.37" fill="#FFB020" fill-opacity="0.83"></circle><circle cx="370.0" cy="312.1" r="3.85" fill="#FFB020" fill-opacity="0.76"></circle><circle cx="400.0" cy="312.1" r="3.34" fill="#FFB020" fill-opacity="0.69"></circle><circle cx="430.0" cy="312.1" r="2.88" fill="#FFB020" fill-opacity="0.62"></circle><circle cx="460.0" cy="312.1" r="2.46" fill="#FFB020" fill-opacity="0.54"></circle><circle cx="490.0" cy="312.1" r="2.10" fill="#FFB020" fill-opacity="0.47"></circle><circle cx="520.0" cy="312.1" r="1.81" fill="#FFB020" fill-opacity="0.39"></circle><circle cx="25.0" cy="338.2" r="1.67" fill="#FFB020" fill-opacity="0.35"></circle><circle cx="55.0" cy="338.2" r="1.89" fill="#FFB020" fill-opacity="0.42"></circle><circle cx="85.0" cy="338.2" r="2.20" fill="#FFB020" fill-opacity="0.49"></circle><circle cx="115.0" cy="338.2" r="2.56" fill="#FFB020" fill-opacity="0.56"></circle><circle cx="145.0" cy="338.2" r="2.97" fill="#FFB020" fill-opacity="0.63"></circle><circle cx="175.0" cy="338.2" r="3.41" fill="#FFB020" fill-opacity="0.70"></circle><circle cx="205.0" cy="338.2" r="3.86" fill="#FFB020" fill-opacity="0.76"></circle><circle cx="235.0" cy="338.2" r="4.26" fill="#FFB020" fill-opacity="0.82"></circle><circle cx="265.0" cy="338.2" r="4.52" fill="#FFB020" fill-opacity="0.85"></circle><circle cx="295.0" cy="338.2" r="4.52" fill="#FFB020" fill-opacity="0.85"></circle><circle cx="325.0" cy="338.2" r="4.26" fill="#FFB020" fill-opacity="0.82"></circle><circle cx="355.0" cy="338.2" r="3.86" fill="#FFB020" fill-opacity="0.76"></circle><circle cx="385.0" cy="338.2" r="3.41" fill="#FFB020" fill-opacity="0.70"></circle><circle cx="415.0" cy="338.2" r="2.97" fill="#FFB020" fill-opacity="0.63"></circle><circle cx="445.0" cy="338.2" r="2.56" fill="#FFB020" fill-opacity="0.56"></circle><circle cx="475.0" cy="338.2" r="2.20" fill="#FFB020" fill-opacity="0.49"></circle><circle cx="505.0" cy="338.2" r="1.89" fill="#FFB020" fill-opacity="0.42"></circle><circle cx="535.0" cy="338.2" r="1.67" fill="#FFB020" fill-opacity="0.35"></circle><circle cx="40.0" cy="364.3" r="1.72" fill="#FFB020" fill-opacity="0.36"></circle><circle cx="70.0" cy="364.3" r="1.95" fill="#FFB020" fill-opacity="0.43"></circle><circle cx="100.0" cy="364.3" r="2.26" fill="#FFB020" fill-opacity="0.50"></circle><circle cx="130.0" cy="364.3" r="2.61" fill="#FFB020" fill-opacity="0.57"></circle><circle cx="160.0" cy="364.3" r="2.98" fill="#FFB020" fill-opacity="0.63"></circle><circle cx="190.0" cy="364.3" r="3.36" fill="#FFB020" fill-opacity="0.69"></circle><circle cx="220.0" cy="364.3" r="3.70" fill="#FFB020" fill-opacity="0.74"></circle><circle cx="250.0" cy="364.3" r="3.96" fill="#FFB020" fill-opacity="0.78"></circle><circle cx="280.0" cy="364.3" r="4.05" fill="#FFB020" fill-opacity="0.79"></circle><circle cx="310.0" cy="364.3" r="3.96" fill="#FFB020" fill-opacity="0.78"></circle><circle cx="340.0" cy="364.3" r="3.70" fill="#FFB020" fill-opacity="0.74"></circle><circle cx="370.0" cy="364.3" r="3.36" fill="#FFB020" fill-opacity="0.69"></circle><circle cx="400.0" cy="364.3" r="2.98" fill="#FFB020" fill-opacity="0.63"></circle><circle cx="430.0" cy="364.3" r="2.61" fill="#FFB020" fill-opacity="0.57"></circle><circle cx="460.0" cy="364.3" r="2.26" fill="#FFB020" fill-opacity="0.50"></circle><circle cx="490.0" cy="364.3" r="1.95" fill="#FFB020" fill-opacity="0.43"></circle><circle cx="520.0" cy="364.3" r="1.72" fill="#FFB020" fill-opacity="0.36"></circle><circle cx="55.0" cy="390.4" r="1.74" fill="#FFB020" fill-opacity="0.37"></circle><circle cx="85.0" cy="390.4" r="1.97" fill="#FFB020" fill-opacity="0.44"></circle><circle cx="115.0" cy="390.4" r="2.26" fill="#FFB020" fill-opacity="0.50"></circle><circle cx="145.0" cy="390.4" r="2.57" fill="#FFB020" fill-opacity="0.56"></circle><circle cx="175.0" cy="390.4" r="2.89" fill="#FFB020" fill-opacity="0.62"></circle><circle cx="205.0" cy="390.4" r="3.19" fill="#FFB020" fill-opacity="0.67"></circle><circle cx="235.0" cy="390.4" r="3.43" fill="#FFB020" fill-opacity="0.70"></circle><circle cx="265.0" cy="390.4" r="3.56" fill="#FFB020" fill-opacity="0.72"></circle><circle cx="295.0" cy="390.4" r="3.56" fill="#FFB020" fill-opacity="0.72"></circle><circle cx="325.0" cy="390.4" r="3.43" fill="#FFB020" fill-opacity="0.70"></circle><circle cx="355.0" cy="390.4" r="3.19" fill="#FFB020" fill-opacity="0.67"></circle><circle cx="385.0" cy="390.4" r="2.89" fill="#FFB020" fill-opacity="0.62"></circle><circle cx="415.0" cy="390.4" r="2.57" fill="#FFB020" fill-opacity="0.56"></circle><circle cx="445.0" cy="390.4" r="2.26" fill="#FFB020" fill-opacity="0.50"></circle><circle cx="475.0" cy="390.4" r="1.97" fill="#FFB020" fill-opacity="0.44"></circle><circle cx="505.0" cy="390.4" r="1.74" fill="#FFB020" fill-opacity="0.37"></circle><circle cx="70.0" cy="416.5" r="1.74" fill="#FFB020" fill-opacity="0.37"></circle><circle cx="100.0" cy="416.5" r="1.96" fill="#FFB020" fill-opacity="0.44"></circle><circle cx="130.0" cy="416.5" r="2.21" fill="#FFB020" fill-opacity="0.49"></circle><circle cx="160.0" cy="416.5" r="2.47" fill="#FFB020" fill-opacity="0.55"></circle><circle cx="190.0" cy="416.5" r="2.73" fill="#FFB020" fill-opacity="0.59"></circle><circle cx="220.0" cy="416.5" r="2.94" fill="#FFB020" fill-opacity="0.63"></circle><circle cx="250.0" cy="416.5" r="3.09" fill="#FFB020" fill-opacity="0.65"></circle><circle cx="280.0" cy="416.5" r="3.14" fill="#FFB020" fill-opacity="0.66"></circle><circle cx="310.0" cy="416.5" r="3.09" fill="#FFB020" fill-opacity="0.65"></circle><circle cx="340.0" cy="416.5" r="2.94" fill="#FFB020" fill-opacity="0.63"></circle><circle cx="370.0" cy="416.5" r="2.73" fill="#FFB020" fill-opacity="0.59"></circle><circle cx="400.0" cy="416.5" r="2.47" fill="#FFB020" fill-opacity="0.55"></circle><circle cx="430.0" cy="416.5" r="2.21" fill="#FFB020" fill-opacity="0.49"></circle><circle cx="460.0" cy="416.5" r="1.96" fill="#FFB020" fill-opacity="0.44"></circle><circle cx="490.0" cy="416.5" r="1.74" fill="#FFB020" fill-opacity="0.37"></circle><circle cx="85.0" cy="442.6" r="1.72" fill="#FFB020" fill-opacity="0.37"></circle><circle cx="115.0" cy="442.6" r="1.90" fill="#FFB020" fill-opacity="0.42"></circle><circle cx="145.0" cy="442.6" r="2.11" fill="#FFB020" fill-opacity="0.47"></circle><circle cx="175.0" cy="442.6" r="2.32" fill="#FFB020" fill-opacity="0.52"></circle><circle cx="205.0" cy="442.6" r="2.51" fill="#FFB020" fill-opacity="0.55"></circle><circle cx="235.0" cy="442.6" r="2.65" fill="#FFB020" fill-opacity="0.58"></circle><circle cx="265.0" cy="442.6" r="2.73" fill="#FFB020" fill-opacity="0.59"></circle><circle cx="295.0" cy="442.6" r="2.73" fill="#FFB020" fill-opacity="0.59"></circle><circle cx="325.0" cy="442.6" r="2.65" fill="#FFB020" fill-opacity="0.58"></circle><circle cx="355.0" cy="442.6" r="2.51" fill="#FFB020" fill-opacity="0.55"></circle><circle cx="385.0" cy="442.6" r="2.32" fill="#FFB020" fill-opacity="0.52"></circle><circle cx="415.0" cy="442.6" r="2.11" fill="#FFB020" fill-opacity="0.47"></circle><circle cx="445.0" cy="442.6" r="1.90" fill="#FFB020" fill-opacity="0.42"></circle><circle cx="475.0" cy="442.6" r="1.72" fill="#FFB020" fill-opacity="0.37"></circle><circle cx="100.0" cy="468.7" r="1.68" fill="#FFB020" fill-opacity="0.35"></circle><circle cx="130.0" cy="468.7" r="1.82" fill="#FFB020" fill-opacity="0.40"></circle><circle cx="160.0" cy="468.7" r="1.98" fill="#FFB020" fill-opacity="0.44"></circle><circle cx="190.0" cy="468.7" r="2.14" fill="#FFB020" fill-opacity="0.48"></circle><circle cx="220.0" cy="468.7" r="2.27" fill="#FFB020" fill-opacity="0.50"></circle><circle cx="250.0" cy="468.7" r="2.35" fill="#FFB020" fill-opacity="0.52"></circle><circle cx="280.0" cy="468.7" r="2.38" fill="#FFB020" fill-opacity="0.53"></circle><circle cx="310.0" cy="468.7" r="2.35" fill="#FFB020" fill-opacity="0.52"></circle><circle cx="340.0" cy="468.7" r="2.27" fill="#FFB020" fill-opacity="0.50"></circle><circle cx="370.0" cy="468.7" r="2.14" fill="#FFB020" fill-opacity="0.48"></circle><circle cx="400.0" cy="468.7" r="1.98" fill="#FFB020" fill-opacity="0.44"></circle><circle cx="430.0" cy="468.7" r="1.82" fill="#FFB020" fill-opacity="0.40"></circle><circle cx="460.0" cy="468.7" r="1.68" fill="#FFB020" fill-opacity="0.35"></circle><circle cx="145.0" cy="494.8" r="1.72" fill="#FFB020" fill-opacity="0.37"></circle><circle cx="175.0" cy="494.8" r="1.83" fill="#FFB020" fill-opacity="0.40"></circle><circle cx="205.0" cy="494.8" r="1.94" fill="#FFB020" fill-opacity="0.43"></circle><circle cx="235.0" cy="494.8" r="2.02" fill="#FFB020" fill-opacity="0.45"></circle><circle cx="265.0" cy="494.8" r="2.07" fill="#FFB020" fill-opacity="0.46"></circle><circle cx="295.0" cy="494.8" r="2.07" fill="#FFB020" fill-opacity="0.46"></circle><circle cx="325.0" cy="494.8" r="2.02" fill="#FFB020" fill-opacity="0.45"></circle><circle cx="355.0" cy="494.8" r="1.94" fill="#FFB020" fill-opacity="0.43"></circle><circle cx="385.0" cy="494.8" r="1.83" fill="#FFB020" fill-opacity="0.40"></circle><circle cx="415.0" cy="494.8" r="1.72" fill="#FFB020" fill-opacity="0.37"></circle><circle cx="190.0" cy="520.9" r="1.70" fill="#FFB020" fill-opacity="0.36"></circle><circle cx="220.0" cy="520.9" r="1.76" fill="#FFB020" fill-opacity="0.38"></circle><circle cx="250.0" cy="520.9" r="1.80" fill="#FFB020" fill-opacity="0.39"></circle><circle cx="280.0" cy="520.9" r="1.82" fill="#FFB020" fill-opacity="0.40"></circle><circle cx="310.0" cy="520.9" r="1.80" fill="#FFB020" fill-opacity="0.39"></circle><circle cx="340.0" cy="520.9" r="1.76" fill="#FFB020" fill-opacity="0.38"></circle><circle cx="370.0" cy="520.9" r="1.70" fill="#FFB020" fill-opacity="0.36"></circle></g></svg>
